<svg width="21" height="21" viewBox="0 0 21 21" fill="none" xmlns="http://www.w3.org/2000/svg">
<path d="M4.67812 7.44405C4.51795 7.60421 4.51795 7.86393 4.67812 8.02413L10.21 13.556C10.2869 13.6329 10.3912 13.6761 10.5 13.6761C10.6088 13.6761 10.7131 13.6329 10.79 13.556L16.3219 8.02409C16.4821 7.86393 16.4821 7.60422 16.3219 7.44401C16.1618 7.2838 15.902 7.28384 15.7418 7.44401L10.5 12.6859L5.25816 7.44401C5.098 7.28384 4.83829 7.28384 4.67812 7.44405ZM0 10.5C0 16.2897 4.71028 21 10.5 21C16.2897 21 21 16.2897 21 10.5C21 4.71028 16.2897 0 10.5 0C4.71028 0 0 4.71028 0 10.5ZM0.820312 10.5C0.820312 5.1626 5.1626 0.820312 10.5 0.820312C15.8374 0.820312 20.1797 5.1626 20.1797 10.5C20.1797 15.8374 15.8374 20.1797 10.5 20.1797C5.1626 20.1797 0.820312 15.8374 0.820312 10.5Z" fill="white"/>
</svg>
