<svg width="62" height="62" viewBox="0 0 62 62" fill="none" xmlns="http://www.w3.org/2000/svg">
<path d="M31 61.2954C47.7317 61.2954 61.2954 47.7317 61.2954 31C61.2954 14.2683 47.7317 0.704529 31 0.704529C14.2683 0.704529 0.704529 14.2683 0.704529 31C0.704529 47.7317 14.2683 61.2954 31 61.2954Z" fill="#E1F5FE"/>
<path d="M31 62C13.9063 62 0 48.0937 0 31C0 13.9063 13.9063 0 31 0C48.0937 0 62 13.9063 62 31C62 48.0937 48.0937 62 31 62ZM31 1.40909C14.6827 1.40909 1.40909 14.6827 1.40909 31C1.40909 47.3173 14.6827 60.5909 31 60.5909C47.3173 60.5909 60.5909 47.3173 60.5909 31C60.5909 14.6827 47.3173 1.40909 31 1.40909Z" fill="#0277BD"/>
<path d="M31 60.5909C14.6828 60.5909 1.40912 47.3173 1.40912 31C1.40912 14.6828 14.6828 1.40912 31 1.40912C47.3173 1.40912 60.5909 14.6828 60.5909 31C60.5909 47.3173 47.3173 60.5909 31 60.5909ZM31 2.81821C15.4606 2.81821 2.81821 15.4606 2.81821 31C2.81821 46.5395 15.4606 59.1818 31 59.1818C46.5395 59.1818 59.1818 46.5395 59.1818 31C59.1818 15.4606 46.5395 2.81821 31 2.81821Z" fill="white"/>
<path d="M31 55.6591C33.3346 55.6591 35.2273 53.7665 35.2273 51.4318C35.2273 49.0971 33.3346 47.2045 31 47.2045C28.6653 47.2045 26.7727 49.0971 26.7727 51.4318C26.7727 53.7665 28.6653 55.6591 31 55.6591Z" fill="#3E5085"/>
<path d="M28.1818 52.1364C27.7929 52.1364 27.4773 51.8208 27.4773 51.4318C27.4773 49.4901 29.0583 47.9091 31 47.9091C31.6482 47.9091 32.2837 48.0867 32.8361 48.4248C33.1672 48.6278 33.2729 49.0618 33.07 49.3943C32.8671 49.7254 32.4331 49.8311 32.1005 49.6282C31.7708 49.4253 31.3889 49.3182 31 49.3182C29.8347 49.3182 28.8864 50.2665 28.8864 51.4318C28.8864 51.8208 28.5707 52.1364 28.1818 52.1364Z" fill="#FFF8E1"/>
<path d="M31 56.3636C28.2804 56.3636 26.0682 54.1514 26.0682 51.4318C26.0682 48.7123 28.2804 46.5 31 46.5C33.7195 46.5 35.9318 48.7123 35.9318 51.4318C35.9318 51.9574 35.8487 52.4745 35.6866 52.9691C35.564 53.3397 35.1653 53.5412 34.7975 53.4186C34.4269 53.2975 34.2268 52.8987 34.348 52.5295C34.4649 52.1758 34.5227 51.8066 34.5227 51.4318C34.5227 49.4901 32.9417 47.9091 31 47.9091C29.0583 47.9091 27.4773 49.4901 27.4773 51.4318C27.4773 53.3735 29.0583 54.9545 31 54.9545C31.558 54.9545 32.0934 54.8277 32.5894 54.5755C32.9375 54.398 33.3588 54.5389 33.5364 54.8869C33.7125 55.2335 33.573 55.6577 33.2249 55.8338C32.5303 56.1861 31.782 56.3636 31 56.3636Z" fill="#586BA4"/>
<path d="M31 42.9772C29.2048 42.9772 27.7478 41.5245 27.7478 39.7349V38.6541C27.7478 34.8285 28.8511 32.0652 31.2184 29.9586C32.0272 29.2386 32.898 28.613 33.7407 28.0127C36.5546 25.9963 38.5865 24.5421 38.5865 20.2796C38.5865 15.9678 35.8148 13.7316 33.2193 13.0721C30.1644 12.2929 25.8793 13.3426 23.0147 18.5873C22.1565 20.1598 20.181 20.7404 18.6056 19.885C17.0274 19.0297 16.4455 17.0598 17.3036 15.4873C21.1307 8.47141 28.0113 5.05296 34.8228 6.78755C40.9651 8.3446 45.0909 13.7668 45.0909 20.2796C45.0909 27.869 40.7241 30.9943 37.5353 33.2799C36.7984 33.8083 36.1009 34.3057 35.5485 34.7975C35.0314 35.2582 34.2522 35.9529 34.2522 38.6541V39.7349C34.2522 41.5245 32.7966 42.9772 31 42.9772Z" fill="#3E5085"/>
<path d="M31 43.6818C28.8188 43.6818 27.0433 41.9106 27.0433 39.735V38.6542C27.0433 34.6129 28.2213 31.682 30.7506 29.4331C31.6059 28.6708 32.5233 28.017 33.3321 27.4392C36.0742 25.4736 37.882 24.1786 37.882 20.2796C37.882 16.3751 35.3837 14.3488 33.046 13.7541C30.249 13.0454 26.3092 14.0247 23.6333 18.9241C22.5906 20.8334 20.1839 21.5422 18.2689 20.5037C17.3389 20.0006 16.6625 19.1651 16.3638 18.1533C16.0651 17.1416 16.1792 16.0749 16.6851 15.1491C20.6742 7.83737 27.8606 4.28364 34.9976 6.1056C41.4555 7.74437 45.7941 13.4399 45.7941 20.2811C45.7941 28.2311 41.2582 31.4791 37.9454 33.852C37.2212 34.3706 36.5392 34.8581 36.015 35.3245C35.5669 35.7233 34.9539 36.2686 34.9539 38.6556V39.7364C34.9568 41.9106 33.1813 43.6818 31 43.6818ZM31.3551 12.1351C32.0695 12.1351 32.7572 12.2253 33.3941 12.3887C36.2447 13.113 39.2911 15.5662 39.2911 20.2796C39.2911 24.9001 37.0253 26.5247 34.1564 28.5806C33.3687 29.1428 32.4852 29.7741 31.6863 30.4857C29.4796 32.45 28.451 35.0441 28.451 38.6542V39.735C28.4524 41.1342 29.5952 42.2727 31 42.2727C32.4049 42.2727 33.5477 41.1342 33.5477 39.735V38.6542C33.5477 35.8698 34.3396 34.9314 35.0808 34.2705C35.6613 33.7534 36.3729 33.2447 37.1254 32.7064C40.362 30.3871 44.3878 27.5055 44.3878 20.2796C44.3878 14.0951 40.4762 8.94773 34.6524 7.47101C28.1635 5.81673 21.5958 9.09569 17.9251 15.8241C17.601 16.4187 17.5263 17.105 17.7194 17.7546C17.9124 18.4056 18.3464 18.9424 18.9453 19.2665C20.181 19.9358 21.7296 19.4793 22.4004 18.2491C24.8705 13.7231 28.3608 12.1351 31.3551 12.1351Z" fill="#586BA4"/>
<path d="M18.5422 16.8655C18.4281 16.8655 18.3125 16.8373 18.2054 16.7795C17.863 16.5935 17.7376 16.1651 17.9236 15.8241C21.5943 9.09432 28.1621 5.81537 34.6523 7.46964C37.3507 8.15446 39.6927 9.63823 41.4272 11.7617C41.6738 12.0633 41.6287 12.5071 41.3272 12.7537C41.0228 12.9989 40.5804 12.9552 40.3352 12.6537C38.7937 10.7655 36.7082 9.44519 34.3043 8.83505C28.4594 7.34423 22.513 10.3526 19.1608 16.4977C19.0326 16.733 18.7916 16.8655 18.5422 16.8655ZM29.1569 39.3588C28.768 39.3588 28.4523 39.0431 28.4523 38.6542C28.4523 34.9948 29.45 32.4754 31.6876 30.4843C32.4852 29.7741 33.3729 29.1401 34.1563 28.5821C36.3686 26.9954 38.2793 25.6258 38.9867 22.9076C39.0839 22.53 39.4672 22.3074 39.8462 22.4032C40.2225 22.5004 40.4479 22.8865 40.3507 23.2627C39.5151 26.4755 37.3113 28.0551 34.9778 29.7262C34.2197 30.2673 33.3644 30.8761 32.6247 31.5369C30.7139 33.2377 29.8614 35.433 29.8614 38.6542C29.8614 39.0431 29.5472 39.3588 29.1569 39.3588Z" fill="#EFEFEF"/>
</svg>
