<svg xmlns="http://www.w3.org/2000/svg" enable-background="new 0 0 128 128" viewBox="0 0 128 128"><path fill="#231f20" d="M111.9,62.5c0.5-2,0.8-4.1,0.8-6.2c0-12.9-10.5-23.4-23.4-23.4C76.9,33,66.7,42.8,66,55.1c-0.8-1-1.3-2-1.6-3.1c-1.4-7.3-5-11.7-7.8-14.2c-1.9-1.7-3.8-2.7-4.9-3.2c0.2-1.5,0.4-3.2,0.4-5c0.1-4.5-0.6-8.4-0.6-8.5l-1.3,0.2l-1.3,0.2c0,0,0,0,0-0.1c0,0,0.1,2-3.2,5.3c-0.3-4.7-2.8-9-3-9.2c-0.3-0.5-0.9-0.7-1.4-0.6c-0.6,0.1-1,0.6-1.1,1.1c-0.3,2.3-1.5,3.7-3,5.5c-1.6,1.9-3.4,4-4.6,7.7C24.5,36.8,19.3,43,17.3,49.3c0,0,0,0,0,0.1c-0.1,0.4-0.2,0.7-0.3,1.1c-0.4,1.4-0.5,2.6-0.7,3.5c0,0.2-0.1,0.4-0.1,0.6c-0.2,1.3,1.1,2.5,2,3.2c0.4,0.3,0.9,0.7,1.5,1c-2.3,0.8-4.3,2.1-4.4,4.3c-0.1,2,0.2,3.4,1.1,4.2c0.4,0.4,0.8,0.6,1.2,0.8c-1.1,2.5-0.6,5.8,1,7.3c1,0.9,2.3,1.1,3.6,0.4c0.3-0.2,0.7-0.4,1.1-0.6c3.7-2.2,7-3.6,10.1,1.2c1.1,1.8,1,3.4,0.9,5.2c-0.1,1.8-0.3,3.7,1.1,5.4c1.2,1.5,3.4,2.5,6.9,3.2c-0.7,2.8-1.1,6.1-1.2,9.8c-3.1,0.1-5.6,1.1-7.3,3c-2.8,2.9-2.4,6.9-2.4,7.1c0.1,0.7,0.6,1.2,1.3,1.2h1c0,0,0.1,0,0.1,0c0,0,0,0,0.1,0h49.9c0.1,0,0.2,0,0.3,0c0.1,0,3.1-0.7,5.4-3.3c3.4-3.4,5.8-7.9,6.9-13.1c1.1-5.3,1-11.2-0.5-17.4c-0.1-0.3-0.1-0.6-0.2-0.8c0-0.1,0-0.2-0.1-0.3c-0.1-0.2-0.1-0.4-0.2-0.6c0-0.1-0.1-0.2-0.1-0.3c-0.1-0.2-0.1-0.4-0.2-0.6c0-0.1-0.1-0.2-0.1-0.3c-0.1-0.2-0.1-0.4-0.2-0.6c0-0.1,0-0.1-0.1-0.2c0,0,0,0,0,0c0.1,0,0.3,0,0.4,0.1c0.1,0,0.2,0,0.3,0.1c0.1,0,0.3,0,0.4,0.1c0.1,0,0.2,0,0.3,0c0.2,0,0.3,0,0.5,0c0.1,0,0.2,0,0.2,0c0.2,0,0.5,0,0.7,0c0.6,0,1.3,0,1.9-0.1c4.4-0.6,8.3-3.1,10.5-7c0,0,0,0,0,0c0,0,0,0,0,0c0,0,0,0,0,0C111,65.5,111.5,64.1,111.9,62.5C111.9,62.5,111.9,62.5,111.9,62.5z M18.9,54.7c0-0.1,0-0.2,0.1-0.4c0.1-0.7,0.2-1.5,0.4-2.4c1.3,1.1,3.1,3,3,5.2C20.1,56,19.1,55.1,18.9,54.7z M97.2,71.3c-0.1,0-0.1,0-0.2,0c-0.1,0-0.3,0-0.4,0c-0.1,0-0.1,0-0.2,0c-0.1,0-0.2,0-0.3,0c-0.1,0-0.2,0-0.2,0c-0.1,0-0.2,0-0.3-0.1c-0.1,0-0.2,0-0.2-0.1c-0.1,0-0.2,0-0.3-0.1c-0.1,0-0.2,0-0.2-0.1c-0.1,0-0.2-0.1-0.3-0.1c-0.1,0-0.2-0.1-0.2-0.1c-0.1,0-0.2-0.1-0.3-0.1c-0.1,0-0.2-0.1-0.2-0.1c-0.1,0-0.2-0.1-0.3-0.1c0,0,0,0-0.1,0c-4.4-1.8-7.3-6.1-7.3-10.9c0-0.7-0.6-1.3-1.3-1.3s-1.3,0.6-1.3,1.3c0,5.7,3.3,10.8,8.4,13.1c0,0.1,0.1,0.1,0.1,0.2c0.1,0.2,0.2,0.5,0.3,0.7c0,0,0,0,0,0c0.3,1,0.6,2,0.9,3c0.1,0.4,0.2,0.9,0.3,1.3c0,0,0,0,0,0c0,0,0,0,0,0c2.7,11.6,0.6,21.8-5.7,28c0,0,0,0,0,0c0,0,0,0,0,0c-1.5,1.7-3.4,2.3-3.9,2.5H36.8c1.2-0.9,3.1-1.8,5.7-1.8c0.7,0,1.3-0.6,1.3-1.3c0-0.7-0.6-1.3-1.3-1.3c-4,0-6.6,1.7-8.1,3.1c0.2-0.8,0.7-1.6,1.4-2.4c1.4-1.5,3.6-2.2,6.6-2.1c0,0,0,0,0,0c0,0,0,0,0,0c0,0,0,0,0,0c0,0,0,0,0.1,0c0,0,0,0,0,0c0,0,0.1,0,0.1,0c0,0,0,0,0,0c0.4-0.1,0.8-0.4,1-0.7c0,0,0,0,0,0c0,0,0-0.1,0-0.1c0,0,0,0,0,0c0,0,0-0.1,0-0.1c0,0,0,0,0,0c0,0,0,0,0-0.1c0,0,0,0,0-0.1c0,0,0,0,0-0.1c0,0,0,0,0-0.1c0,0,0,0,0,0c0,0,0,0,0,0c0-4.7,0.5-8.7,1.5-11.8c0,0,0,0,0,0c0,0,0,0,0,0c0,0,0,0,0,0c1.2-3.8,3.2-6.3,5.9-7.5c4.5-1.9,9.7,0.7,9.8,0.7c0.7,0.3,1.5,0.1,1.8-0.6c0.3-0.7,0.1-1.5-0.6-1.8c-0.3-0.1-6.3-3.1-12-0.8c-3.2,1.3-5.6,4-7.1,8.1c-2.9-0.6-4.8-1.3-5.6-2.3c-0.7-0.8-0.6-1.8-0.5-3.5c0.1-1.9,0.3-4.3-1.3-6.8c-2-3.2-4.6-4.7-7.6-4.4c-2.4,0.2-4.5,1.5-6.1,2.4c-0.4,0.2-0.7,0.4-1,0.6c-0.3,0.2-0.4,0.1-0.5,0c-0.6-0.6-1.1-2.6-0.4-4.3c0.5-1.1,1.4-1.9,2.6-2.3c4.6-1.6,12.1,2.2,12.2,2.2c0.7,0.3,1.5,0.1,1.8-0.6c0.3-0.7,0.1-1.5-0.6-1.8c-0.4-0.2-8.7-4.3-14.3-2.3c-0.9,0.3-1.7,0.8-2.4,1.4c-0.5,0-0.9,0-1.1-0.2c-0.1-0.1-0.4-0.6-0.3-2.2c0.1-0.7,1-1.8,5.1-2.7c4,1.9,10.6,4.2,15.8,4.2c2.4,0,4.5-0.5,5.9-1.8c0,0,0,0,0,0c0,0,0,0,0,0l0,0c0,0,0,0,0,0c0.5-0.4,0.8-0.9,1.1-1.5c4.8-6.2,10.7-7.5,10.7-7.5c0.7-0.1,1.2-0.9,1-1.6c-0.1-0.7-0.9-1.2-1.6-1c-0.2,0-4.6,1-9.2,5.2c1.3-7.1,4.2-9.8,4.2-9.9c0.6-0.5,0.6-1.3,0.1-1.9c-0.5-0.6-1.3-0.6-1.9-0.1c-0.2,0.2-4.5,4-5.5,14.5c0,0.3-0.1,0.6-0.2,0.9c-0.2,0.3-0.5,0.6-0.7,1c-2.7,2.3-11.2,0.4-18.1-2.7c0.5-2.4-0.2-4.7-2.2-6.9c-0.9-1-1.9-1.8-2.6-2.3c2.1-5.6,7-11,14.5-16.2c0.3-0.2,0.4-0.4,0.5-0.7c1-3.5,2.6-5.4,4.2-7.2c0.9-1.1,1.8-2.2,2.5-3.5c0.8,2,1.5,4.8,1.1,7.4c-6.3,5.3-5.9,9.4-5.8,9.9c0.1,0.7,0.8,1.2,1.5,1.1c0.7-0.1,1.2-0.8,1.1-1.5c0,0-0.2-3.4,5.3-7.8c1.9-1.6,3.3-3,4.3-4.3c0.1,2.7,0.1,5.9-0.5,8.6c0,0,0,0,0,0c-0.5,2.2-1.2,4.2-2.5,5.3c-0.6,0.5-0.6,1.3-0.1,1.9c0.3,0.3,0.6,0.5,1,0.5c0.3,0,0.6-0.1,0.9-0.3c1.3-1.1,2.3-2.9,3-5.1c2.7,1.4,8.8,5.6,10.7,15.3c0.5,2.8,2.4,4.9,4.6,6.9c0,0,0.1,0.1,0.1,0.1c0.7,0.7,1.5,1.3,2.3,1.9c5.5,4.5,11.7,9.5,8.7,22.1c-0.2,0.7,0.3,1.4,1,1.6c0.1,0,0.2,0,0.3,0c0.6,0,1.2-0.4,1.3-1c3.4-14.2-3.8-20.1-9.6-24.8c-0.7-0.5-1.3-1.1-1.9-1.6c0-0.4,0-0.9,0-1.4c0-11.4,9.3-20.7,20.7-20.7c11.4,0,20.7,9.3,20.7,20.7c0,1.9-0.3,3.7-0.7,5.5c0,0,0,0,0,0.1c-0.4,1.3-0.8,2.5-1.4,3.7c0,0.1-0.1,0.1-0.1,0.2c0,0.1-0.1,0.1-0.1,0.2c0,0.1-0.1,0.1-0.1,0.2c0,0.1-0.1,0.1-0.1,0.2c0,0.1-0.1,0.1-0.1,0.2c0,0.1-0.1,0.1-0.1,0.2c0,0.1-0.1,0.1-0.1,0.2c0,0-0.1,0.1-0.1,0.1c0,0.1-0.1,0.1-0.1,0.1c0,0-0.1,0.1-0.1,0.1c0,0-0.1,0.1-0.1,0.1c0,0-0.1,0.1-0.1,0.1c0,0-0.1,0.1-0.1,0.1c0,0-0.1,0.1-0.1,0.1c0,0-0.1,0.1-0.1,0.1c0,0-0.1,0.1-0.1,0.1c0,0-0.1,0.1-0.1,0.1c0,0-0.1,0.1-0.1,0.1c0,0-0.1,0.1-0.1,0.1c-0.1,0-0.1,0.1-0.2,0.1c0,0-0.1,0.1-0.1,0.1c-0.1,0-0.1,0.1-0.2,0.1c0,0-0.1,0.1-0.1,0.1c-0.1,0-0.1,0.1-0.2,0.1c0,0-0.1,0.1-0.1,0.1c-0.1,0-0.1,0.1-0.2,0.1c0,0-0.1,0.1-0.1,0.1c-0.1,0-0.1,0.1-0.2,0.1c0,0-0.1,0.1-0.1,0.1c-0.1,0-0.1,0.1-0.2,0.1c0,0-0.1,0.1-0.1,0.1c-0.1,0-0.1,0.1-0.2,0.1c0,0-0.1,0.1-0.1,0.1c-0.1,0-0.1,0.1-0.2,0.1c0,0-0.1,0.1-0.2,0.1c-0.1,0-0.1,0.1-0.2,0.1c-0.1,0-0.1,0-0.2,0.1c-0.1,0-0.1,0.1-0.2,0.1c-0.1,0-0.1,0-0.2,0.1c-0.1,0-0.1,0.1-0.2,0.1c-0.1,0-0.1,0-0.2,0.1c-0.1,0-0.1,0.1-0.2,0.1c-0.1,0-0.1,0-0.2,0.1c-0.1,0-0.1,0-0.2,0.1c-0.1,0-0.1,0-0.2,0.1c-0.1,0-0.1,0-0.2,0.1c-0.1,0-0.1,0-0.2,0c-0.1,0-0.1,0-0.2,0.1c-0.1,0-0.1,0-0.2,0c-0.1,0-0.1,0-0.2,0.1c-0.1,0-0.1,0-0.2,0c-0.1,0-0.1,0-0.2,0c-0.1,0-0.1,0-0.2,0c-0.1,0-0.1,0-0.2,0c-0.1,0-0.1,0-0.2,0c-0.1,0-0.1,0-0.2,0c-0.1,0-0.1,0-0.2,0c-0.1,0-0.1,0-0.2,0c-0.1,0-0.1,0-0.2,0c-0.1,0-0.1,0-0.2,0c-0.1,0-0.2,0-0.3,0c0,0-0.1,0-0.1,0c-0.1,0-0.3,0-0.4,0C97.5,71.3,97.3,71.3,97.2,71.3z"/><path fill="#231f20" d="M33.3,39.9c-2.4,0-4.3,1.9-4.3,4.3c0,2.4,1.9,4.3,4.3,4.3s4.3-1.9,4.3-4.3C37.6,41.9,35.7,39.9,33.3,39.9z M33.3,45.9c-0.9,0-1.7-0.7-1.7-1.7c0-0.9,0.7-1.7,1.7-1.7s1.7,0.7,1.7,1.7C35,45.2,34.2,45.9,33.3,45.9z"/></svg>