<svg width="32" height="32" viewBox="0 0 32 32" fill="none" xmlns="http://www.w3.org/2000/svg">
<path d="M16 32C24.8366 32 32 24.8366 32 16C32 7.16344 24.8366 0 16 0C7.16344 0 0 7.16344 0 16C0 24.8366 7.16344 32 16 32Z" fill="#F3FDB2"/>
<path d="M4.3031 16.8209C6.84334 19.7744 16.4222 29.0798 27.6608 16.8747C28.1131 16.3857 28.1131 15.618 27.6608 15.129C16.4222 2.919 6.84334 12.2244 4.3031 15.1779C3.89897 15.6473 3.89897 16.3515 4.3031 16.8209Z" fill="#6563FF"/>
<path d="M16.0144 22C10.6546 22 6.57485 17.9286 5.06472 16.1753C4.97843 16.0731 4.97843 15.9221 5.06472 15.8247C6.57006 14.0763 10.6546 10 16.0144 10C19.7106 10 23.3829 11.9481 26.9209 15.7955C27.0264 15.9075 27.0264 16.0925 26.9209 16.2045C23.3781 20.0471 19.7106 22 16.0144 22Z" fill="#E9EBEE"/>
<path d="M16 20C18.2091 20 20 18.2091 20 16C20 13.7909 18.2091 12 16 12C13.7909 12 12 13.7909 12 16C12 18.2091 13.7909 20 16 20Z" fill="#3E5085"/>
<path d="M19 16C19 17.6593 17.6593 19 16 19C14.3407 19 13 17.6593 13 16C13 14.3407 14.3407 13 16 13C17.6538 13 19 14.3407 19 16Z" fill="#FA8F82"/>
<path d="M17 16C17 16.5528 16.5528 17 16 17C15.4472 17 15 16.5528 15 16C15 15.4472 15.4472 15 16 15C16.5528 15 17 15.4472 17 16Z" fill="#3F5258"/>
<path d="M17 15.5C17 15.777 16.777 16 16.5 16C16.223 16 16 15.777 16 15.5C16 15.223 16.223 15 16.5 15C16.777 15 17 15.223 17 15.5Z" fill="white"/>
</svg>
