<svg width="28" height="30" viewBox="0 0 28 30" fill="none" xmlns="http://www.w3.org/2000/svg">
<path fill-rule="evenodd" clip-rule="evenodd" d="M15.525 14.3848C15.0365 14.573 14.5122 14.7783 13.9995 14.7783C13.4922 14.7783 12.9744 14.5791 12.49 14.3931C13.0639 15.1554 13.5344 16.0165 13.8598 17.0046C13.9246 16.9865 13.9924 16.9815 14.0593 16.9897C14.0878 16.9936 14.1158 16.9999 14.1432 17.0086C14.4762 16.0198 14.9546 15.1591 15.525 14.3868L15.525 14.3848Z" fill="#EBFEFF"/>
<path fill-rule="evenodd" clip-rule="evenodd" d="M13.9997 1.984C13.5945 1.984 13.1905 2.06369 12.8864 2.22621L2.0856 7.98409C2.05915 7.99921 2.0384 8.02172 2.01346 8.03646L11.7185 13.0112C11.721 13.0124 11.7236 13.0138 11.7261 13.0151C11.7441 13.0229 11.7616 13.0315 11.7786 13.0414C11.8164 13.0603 12.1509 13.2293 12.6204 13.4183C13.1152 13.6175 13.7321 13.795 13.9993 13.795C14.2665 13.795 14.8933 13.6175 15.388 13.4183C15.864 13.2267 16.2115 13.0498 16.2395 13.0354C16.2527 13.0259 16.2663 13.017 16.2804 13.0089L25.9874 8.03415C25.961 8.01903 25.939 7.99539 25.9133 7.98179L15.1145 2.22391C14.8102 2.06177 14.4045 1.98169 13.9992 1.98169L13.9997 1.984Z" fill="white"/>
<path fill-rule="evenodd" clip-rule="evenodd" d="M13.9997 2.64662C13.6399 2.64662 13.2814 2.71724 13.0114 2.86162L3.42278 7.97335C3.4001 7.98847 3.38083 8.00748 3.35853 8.01995L11.9744 12.4362C11.9769 12.4373 11.9795 12.4385 11.982 12.4396C11.9979 12.4463 12.0134 12.4538 12.0284 12.4622C12.0625 12.4774 12.3592 12.6289 12.7758 12.7967C13.215 12.9736 13.7627 13.1312 13.9999 13.1312C14.2373 13.1312 14.7935 12.9736 15.2328 12.7967C15.6554 12.6266 15.9639 12.4698 15.9888 12.4569C16.001 12.4487 16.0136 12.4412 16.0266 12.4343L24.6442 8.01787C24.6215 8.00275 24.6011 7.98398 24.5784 7.9715L14.9915 2.85977C14.7213 2.71577 14.3612 2.64478 14.0014 2.64478L13.9997 2.64662Z" fill="#EBFEFF"/>
<path fill-rule="evenodd" clip-rule="evenodd" d="M1.22944 8.72925C1.07636 8.96698 0.97055 9.21328 0.97055 9.42407V21.0051C0.97055 21.5064 1.48314 22.218 2.03839 22.4813L12.8912 27.6221C13.1607 27.7502 13.3574 27.8315 13.5291 27.8931V18.4731C13.2619 16.4053 12.4305 15.2234 11.207 13.8407L1.22961 8.72925H1.22944Z" fill="#29A3EC"/>
<path fill-rule="evenodd" clip-rule="evenodd" d="M26.8246 8.64209L16.7684 13.794C15.4695 15.1388 14.8069 16.3708 14.4132 18.5202V27.9801C14.5863 27.9181 14.7848 27.8362 15.057 27.707L26.0105 22.5194C26.5708 22.2537 27.0881 21.5356 27.0881 21.0298V9.34337C27.0881 9.13058 26.9792 8.88205 26.8246 8.64209V8.64209Z" fill="#EE746C"/>
<path fill-rule="evenodd" clip-rule="evenodd" d="M26.1273 9.70532L16.071 14.8574C14.7721 16.2023 14.1095 17.4341 13.7159 19.5835V29.0433C13.889 28.9814 14.0874 28.8995 14.3596 28.7702L25.3132 23.5826C25.8734 23.3169 26.3907 22.5988 26.3907 22.0931V10.4066C26.3907 10.1938 26.2819 9.94552 26.1273 9.70555V9.70532Z" fill="#FB9761"/>
<path fill-rule="evenodd" clip-rule="evenodd" d="M1.88031 9.70532C1.72724 9.94305 1.62143 10.1896 1.62143 10.4004V21.9814C1.62143 22.4827 2.13402 23.1943 2.68927 23.4576L13.5421 28.5981C13.8116 28.7263 14.0083 28.8076 14.18 28.8692V19.4494C13.9128 17.3816 13.0814 16.1995 11.8579 14.8168L1.88049 9.70555L1.88031 9.70532Z" fill="#3CDEF6"/>
<path d="M27.4998 20.9893V9.46687C27.4998 8.69747 26.8569 7.92362 26.1498 7.54642C15.3498 1.78532 26.1498 7.54642 15.3498 1.78532C14.5654 1.36681 13.4342 1.36681 12.6498 1.78532C1.8498 7.54642 12.6498 1.78532 1.84981 7.54642C1.14273 7.92362 0.499788 8.69747 0.499788 9.46687C0.499788 20.9894 0.499788 9.46681 0.499788 20.9893C0.499788 21.7586 1.12418 22.5655 1.84981 22.9095L12.6498 28.0307C13.8573 28.6033 14.1423 28.6033 15.3498 28.0307L26.1498 22.9095C26.8754 22.5656 27.4998 21.7586 27.4998 20.9893Z" stroke="#5A3392" stroke-width="1.00158" stroke-linecap="round" stroke-linejoin="round"/>
<path d="M22.9997 13.4601C22.9997 13.5257 23.0127 13.5907 23.0378 13.6513C23.0629 13.712 23.0998 13.7671 23.1462 13.8135C23.1927 13.8599 23.2478 13.8968 23.3085 13.9219C23.3691 13.947 23.4341 13.96 23.4998 13.96C23.6324 13.96 23.7596 13.9073 23.8533 13.8135C23.9471 13.7197 23.9998 13.5927 23.9998 13.4601C23.9998 13.3944 23.9869 13.3293 23.9618 13.2686C23.9366 13.208 23.8998 13.1529 23.8534 13.1064C23.807 13.06 23.7518 13.0232 23.6912 12.998C23.6305 12.9729 23.5655 12.96 23.4998 12.96C23.4341 12.96 23.3691 12.9729 23.3085 12.998C23.2478 13.0232 23.1927 13.06 23.1462 13.1064C23.0998 13.1529 23.0629 13.2079 23.0378 13.2686C23.0127 13.3293 22.9997 13.3944 22.9997 13.4601V13.4601ZM22.9997 20.46C22.9997 20.5256 23.0127 20.5908 23.0378 20.6514C23.0629 20.7121 23.0998 20.7672 23.1462 20.8136C23.1927 20.86 23.2478 20.8969 23.3085 20.922C23.3691 20.9472 23.4341 20.9601 23.4998 20.9601C23.6324 20.9601 23.7596 20.9074 23.8533 20.8136C23.9471 20.7198 23.9998 20.5926 23.9998 20.46C23.9998 20.3274 23.9471 20.2003 23.8533 20.1066C23.7596 20.0128 23.6324 19.9601 23.4998 19.9601C23.4341 19.9601 23.3691 19.973 23.3085 19.9981C23.2478 20.0233 23.1927 20.0599 23.1462 20.1063C23.0998 20.1528 23.0629 20.2081 23.0378 20.2687C23.0127 20.3294 22.9997 20.3943 22.9997 20.46V20.46ZM16.9998 16.4599C16.9998 16.5925 17.0524 16.7198 17.1462 16.8135C17.24 16.9073 17.3672 16.96 17.4998 16.96C17.5654 16.96 17.6305 16.9471 17.6911 16.922C17.7518 16.8968 17.8069 16.86 17.8534 16.8135C17.8998 16.7671 17.9366 16.712 17.9617 16.6514C17.9868 16.5907 17.9998 16.5256 17.9998 16.4599C17.9998 16.3942 17.9868 16.3293 17.9617 16.2687C17.9366 16.208 17.8998 16.1529 17.8534 16.1065C17.8069 16.0601 17.7518 16.0232 17.6911 15.9981C17.6305 15.9729 17.5654 15.96 17.4998 15.96C17.4341 15.96 17.3691 15.9729 17.3084 15.9981C17.2478 16.0232 17.1926 16.0601 17.1462 16.1065C17.0998 16.1529 17.063 16.208 17.0378 16.2687C17.0127 16.3293 16.9998 16.3942 16.9998 16.4599V16.4599ZM16.9998 23.4596C16.9998 23.5922 17.0524 23.7194 17.1462 23.8132C17.24 23.907 17.3672 23.9597 17.4998 23.9597C17.5654 23.9597 17.6305 23.9467 17.6911 23.9216C17.7518 23.8965 17.8069 23.8596 17.8534 23.8132C17.8998 23.7668 17.9366 23.7117 17.9617 23.651C17.9868 23.5904 17.9998 23.5252 17.9998 23.4596C17.9998 23.3939 17.9868 23.329 17.9617 23.2683C17.9366 23.2077 17.8998 23.1523 17.8534 23.1059C17.8069 23.0595 17.7518 23.0228 17.6911 22.9977C17.6305 22.9726 17.5654 22.9597 17.4998 22.9597C17.3672 22.9597 17.24 23.0124 17.1462 23.1061C17.0524 23.1999 16.9998 23.3269 16.9998 23.4596Z" fill="white"/>
<path d="M10.4998 7.95973C10.5654 7.95973 10.6304 7.9468 10.6911 7.92167C10.7518 7.89654 10.8069 7.85991 10.8533 7.81348C10.8998 7.76705 10.9366 7.71174 10.9617 7.65108C10.9868 7.59041 10.9998 7.5255 10.9998 7.45984C10.9998 7.32723 10.947 7.19997 10.8533 7.1062C10.7595 7.01243 10.6324 6.95972 10.4998 6.95972C10.3671 6.95972 10.2399 7.01243 10.1462 7.1062C10.0524 7.19997 9.99974 7.32723 9.99974 7.45984C9.99974 7.5255 10.0127 7.59041 10.0378 7.65108C10.0629 7.71174 10.0997 7.76705 10.1462 7.81348C10.1926 7.85991 10.2477 7.89654 10.3084 7.92167C10.3691 7.9468 10.4341 7.95973 10.4998 7.95973ZM17.4997 7.95973C17.5654 7.95974 17.6304 7.94703 17.6911 7.9219C17.7518 7.89677 17.8069 7.85991 17.8533 7.81348C17.8998 7.76705 17.9366 7.71175 17.9617 7.65108C17.9868 7.59041 17.9998 7.52551 17.9998 7.45984C17.9998 7.39418 17.9868 7.32904 17.9617 7.26837C17.9366 7.20771 17.8998 7.15263 17.8533 7.1062C17.8069 7.05977 17.7518 7.0229 17.6911 6.99778C17.6304 6.97265 17.5654 6.95971 17.4997 6.95972C17.3671 6.95972 17.2399 7.01243 17.1462 7.1062C17.0524 7.19997 16.9997 7.32723 16.9997 7.45984C16.9997 7.5255 17.0127 7.59041 17.0378 7.65108C17.0629 7.71174 17.0997 7.76705 17.1462 7.81348C17.1926 7.85991 17.2477 7.89654 17.3084 7.92167C17.3691 7.9468 17.4341 7.95973 17.4997 7.95973Z" fill="#5A3392"/>
<path d="M6.49974 18.4599C6.49974 18.5925 6.5524 18.7198 6.64617 18.8136C6.73994 18.9073 6.86714 18.9601 6.99975 18.9601C7.13236 18.9601 7.25951 18.9073 7.35327 18.8136C7.44704 18.7198 7.49976 18.5925 7.49976 18.4599C7.49976 18.3273 7.44704 18.2003 7.35327 18.1065C7.25951 18.0128 7.13236 17.96 6.99975 17.96C6.86714 17.96 6.73994 18.0128 6.64617 18.1065C6.5524 18.2003 6.49974 18.3273 6.49974 18.4599V18.4599ZM9.99974 23.4596C9.99974 23.5922 10.0524 23.7194 10.1462 23.8132C10.2399 23.907 10.3671 23.9597 10.4997 23.9597C10.6324 23.9597 10.7595 23.907 10.8533 23.8132C10.947 23.7194 10.9998 23.5922 10.9998 23.4596C10.9998 23.3269 10.947 23.1999 10.8533 23.1061C10.7595 23.0124 10.6324 22.9597 10.4997 22.9597C10.3671 22.9597 10.2399 23.0124 10.1462 23.1061C10.0524 23.1999 9.99974 23.3269 9.99974 23.4596ZM2.99974 13.4601C2.99974 13.5927 3.05246 13.7197 3.14623 13.8135C3.23999 13.9073 3.36714 13.96 3.49975 13.96C3.63236 13.96 3.75951 13.9073 3.85327 13.8135C3.94704 13.7197 3.99976 13.5927 3.99976 13.4601C3.99976 13.3944 3.98682 13.3293 3.9617 13.2686C3.93657 13.208 3.89976 13.1529 3.85333 13.1064C3.8069 13.06 3.75177 13.0232 3.6911 12.998C3.63044 12.9729 3.56542 12.96 3.49975 12.96C3.43409 12.96 3.36906 12.9729 3.3084 12.998C3.24773 13.0232 3.1926 13.06 3.14617 13.1064C3.09974 13.1529 3.06293 13.208 3.03781 13.2686C3.01268 13.3293 2.99974 13.3944 2.99974 13.4601V13.4601Z" fill="white"/>
<path d="M13.9998 17.4671V28.2101M16.5064 13.4569L26.7498 8.21021L16.5064 13.4569ZM11.4934 13.4569L1.24981 8.21021L11.4934 13.4569ZM11.5064 13.4652C11.5064 13.4652 13.1453 14.2975 14.0032 14.2975C14.8611 14.2975 16.5 13.4652 16.5 13.4652C15.1359 14.8666 14.4067 16.2286 14.0032 18.4604C13.7261 16.2258 12.7863 14.9039 11.5064 13.4652Z" stroke="#5A3392" stroke-width="1.00158" stroke-linecap="round" stroke-linejoin="round"/>
</svg>
