<svg width="89" height="89" viewBox="0 0 89 89" fill="none" xmlns="http://www.w3.org/2000/svg">
<circle cx="44.5" cy="44.5" r="44.5" fill="white"/>
<path d="M51.3626 37.4163L46.7137 37.823L46.307 33.1741C46.253 32.5576 45.9564 31.9878 45.4823 31.59C45.0083 31.1922 44.3956 30.9991 43.7791 31.053C43.1627 31.1069 42.5928 31.4036 42.1951 31.8776C41.7973 32.3517 41.6041 32.9643 41.6581 33.5808L42.0648 38.2297L37.4159 38.6365C36.7994 38.6904 36.2296 38.987 35.8318 39.4611C35.434 39.9351 35.2408 40.5478 35.2948 41.1643C35.3487 41.7808 35.6453 42.3506 36.1194 42.7483C36.5935 43.1461 37.2061 43.3393 37.8226 43.2854L42.4715 42.8786L42.8782 47.5275C42.9322 48.144 43.2288 48.7138 43.7028 49.1116C44.1769 49.5094 44.7896 49.7026 45.406 49.6486C46.0225 49.5947 46.5923 49.2981 46.9901 48.824C47.3879 48.35 47.5811 47.7373 47.5271 47.1208L47.1204 42.4719L51.7693 42.0652C52.3858 42.0112 52.9556 41.7146 53.3534 41.2406C53.7512 40.7665 53.9443 40.1538 53.8904 39.5374C53.8365 38.9209 53.5399 38.3511 53.0658 37.9533C52.5917 37.5555 51.9791 37.3623 51.3626 37.4163Z" fill="white"/>
<path d="M59.2369 20.3316L26.6946 23.1787C24.8459 23.3425 23.1377 24.2329 21.9448 25.6546C20.7518 27.0763 20.1715 28.9132 20.3313 30.7622L22.3649 54.0067C22.5287 55.8554 23.4191 57.5636 24.8408 58.7565C26.2625 59.9495 28.0994 60.5297 29.9484 60.37L56.8794 58.0138L66.25 65.8767C66.6035 66.1734 67.037 66.3586 67.4957 66.4089C67.9545 66.4592 68.4178 66.3723 68.8272 66.1592C69.2365 65.9462 69.5735 65.6165 69.7955 65.2119C70.0174 64.8073 70.1144 64.3459 70.0742 63.8862L66.8204 26.6949C66.6566 24.8463 65.7662 23.1381 64.3445 21.9451C62.9228 20.7522 61.0859 20.1719 59.2369 20.3316ZM51.7694 42.0652L47.1205 42.4719L47.5272 47.1208C47.5811 47.7373 47.3879 48.35 46.9902 48.824C46.5924 49.2981 46.0226 49.5947 45.4061 49.6486C44.7896 49.7026 44.177 49.5094 43.7029 49.1116C43.2288 48.7138 42.9322 48.144 42.8783 47.5275L42.4716 42.8786L37.8226 43.2854C37.2062 43.3393 36.5935 43.1461 36.1194 42.7483C35.6454 42.3506 35.3488 41.7808 35.2948 41.1643C35.2409 40.5478 35.4341 39.9351 35.8318 39.4611C36.2296 38.987 36.7994 38.6904 37.4159 38.6365L42.0648 38.2297L41.6581 33.5808C41.6042 32.9643 41.7973 32.3517 42.1951 31.8776C42.5929 31.4036 43.1627 31.1069 43.7792 31.053C44.3957 30.9991 45.0083 31.1922 45.4824 31.59C45.9564 31.9878 46.2531 32.5576 46.307 33.1741L46.7137 37.823L51.3626 37.4163C51.9791 37.3623 52.5918 37.5555 53.0658 37.9533C53.5399 38.3511 53.8365 38.9209 53.8905 39.5374C53.9444 40.1538 53.7512 40.7665 53.3534 41.2406C52.9557 41.7146 52.3859 42.0112 51.7694 42.0652Z" fill="#69F0AE"/>
</svg>
