<svg width="24" height="24" viewBox="0 0 24 24" fill="none" xmlns="http://www.w3.org/2000/svg">
<path fill-rule="evenodd" clip-rule="evenodd" d="M20.5702 6.75287H14.5579L19.067 4.14952L20.5702 6.75287ZM9.83533 6.75287L17.8862 2.1045L17.3151 1.11442C17.2251 0.958574 17.0783 0.847414 16.9046 0.801C16.7313 0.754738 16.5482 0.777539 16.3928 0.86732L6.19898 6.75287H9.83533ZM21.1224 7.15922C22.2806 7.15922 23.2227 8.10131 23.2227 9.25948V12.4135H16.7165C15.1854 12.4135 13.9393 13.6596 13.9393 15.1907C13.9393 16.7222 15.185 17.9685 16.7165 17.9685H23.2227V21.1227C23.2227 22.2808 22.2804 23.2228 21.1224 23.2228H2.87779C1.71962 23.2228 0.777527 22.281 0.777527 21.1227V9.25948C0.777527 8.10116 1.71947 7.15922 2.87779 7.15922H21.1224Z" fill="#9BC9FF"/>
<path fill-rule="evenodd" clip-rule="evenodd" d="M17.1604 15.1907C17.1604 15.4355 16.9614 15.6351 16.7165 15.6351C16.4717 15.6351 16.2729 15.4355 16.2729 15.1907C16.2729 14.9459 16.4717 14.7471 16.7165 14.7471C16.9614 14.7471 17.1604 14.9459 17.1604 15.1907ZM15.4604 15.1907C15.4604 15.8839 16.024 16.4476 16.7165 16.4476C17.4093 16.4476 17.9729 15.884 17.9729 15.1907C17.9729 14.4982 17.4093 13.9346 16.7165 13.9346C16.024 13.9346 15.4604 14.4982 15.4604 15.1907ZM23.0196 13.0231H16.7165C15.5213 13.0231 14.5487 13.9954 14.5487 15.1907C14.5487 16.3863 15.5212 17.3593 16.7165 17.3593H23.0196V13.0231ZM21.1224 23.0196C22.1685 23.0196 23.0196 22.1685 23.0196 21.1227V18.1715H16.7165C15.0733 18.1715 13.7362 16.8347 13.7362 15.1907C13.7362 13.5475 15.0733 12.2103 16.7165 12.2103H23.0196V9.25943C23.0196 8.21334 22.1685 7.36224 21.1224 7.36224H2.87779C1.83149 7.36224 0.980601 8.21334 0.980601 9.25943V21.1227C0.980601 22.1685 1.83144 23.0196 2.87779 23.0196H21.1224ZM16.4942 1.04323C16.603 0.980716 16.7297 0.964415 16.8521 0.99722C16.9745 1.02977 17.0761 1.10762 17.1391 1.21593L17.6088 2.03011L9.78089 6.54974H6.95695L16.4942 1.04323ZM18.9927 4.42699L15.316 6.54979H20.2184L18.9927 4.42699ZM11.4059 6.54979H13.6912L18.5864 3.72321L18.0151 2.73389L11.4059 6.54979ZM21.1569 6.55076L17.8424 0.809684C17.4886 0.19645 16.7014 -0.014343 16.088 0.33945L5.3319 6.54979H2.87779C1.38375 6.54979 0.167847 7.76524 0.167847 9.25948V21.1227C0.167847 22.6165 1.38375 23.8322 2.87779 23.8322H21.1224C22.6165 23.8322 23.8321 22.6165 23.8321 21.1227V9.25948C23.8321 7.77697 22.6351 6.56945 21.1569 6.55076Z" fill="#57A4FF"/>
</svg>
