<svg width="28" height="28" viewBox="0 0 28 28" fill="none" xmlns="http://www.w3.org/2000/svg">
<path d="M21 0.6C24.5346 0.6 27.4 3.46537 27.4 7V21C27.4 24.5346 24.5346 27.4 21 27.4H20.9754H20.9507H20.926H20.9012H20.8765H20.8517H20.8268H20.802H20.7771H20.7522H20.7272H20.7022H20.6772H20.6522H20.6271H20.602H20.5768H20.5517H20.5265H20.5013H20.476H20.4507H20.4254H20.4001H20.3747H20.3493H20.3239H20.2984H20.2729H20.2474H20.2219H20.1963H20.1707H20.1451H20.1194H20.0938H20.0681H20.0423H20.0166H19.9908H19.965H19.9391H19.9133H19.8874H19.8614H19.8355H19.8095H19.7835H19.7575H19.7314H19.7054H19.6793H19.6531H19.627H19.6008H19.5746H19.5484H19.5221H19.4959H19.4696H19.4432H19.4169H19.3905H19.3641H19.3377H19.3112H19.2848H19.2583H19.2318H19.2052H19.1787H19.1521H19.1255H19.0988H19.0722H19.0455H19.0188H18.9921H18.9653H18.9386H18.9118H18.885H18.8582H18.8313H18.8044H18.7775H18.7506H18.7237H18.6967H18.6697H18.6427H18.6157H18.5887H18.5616H18.5345H18.5074H18.4803H18.4532H18.426H18.3988H18.3716H18.3444H18.3172H18.2899H18.2627H18.2354H18.2081H18.1807H18.1534H18.126H18.0986H18.0712H18.0438H18.0164H17.9889H17.9614H17.9339H17.9064H17.8789H17.8514H17.8238H17.7962H17.7686H17.741H17.7134H17.6857H17.6581H17.6304H17.6027H17.575H17.5473H17.5195H17.4918H17.464H17.4362H17.4084H17.3806H17.3528H17.325H17.2971H17.2692H17.2413H17.2134H17.1855H17.1576H17.1296H17.1017H17.0737H17.0457H17.0177H16.9897H16.9617H16.9337H16.9056H16.8776H16.8495H16.8214H16.7933H16.7652H16.7371H16.7089H16.6808H16.6526H16.6245H16.5963H16.5681H16.5399H16.5117H16.4834H16.4552H16.427H16.3987H16.3704H16.3421H16.3139H16.2856H16.2572H16.2289H16.2006H16.1723H16.1439H16.1156H16.0872H16.0588H16.0304H16.002H15.9736H15.9452H15.9168H15.8884H15.8599H15.8315H15.8031H15.7746H15.7461H15.7177H15.6892H15.6607H15.6322H15.6037H15.5752H15.5467H15.5181H15.4896H15.4611H15.4325H15.404H15.3754H15.3468H15.3183H15.2897H15.2611H15.2325H15.204H15.1754H15.1468H15.1182H15.0895H15.0609H15.0323H15.0037H14.9751H14.9464H14.9178H14.8891H14.8605H14.8319H14.8032H14.7746H14.7459H14.7172H14.6886H14.6599H14.6312H14.6026H14.5739H14.5452H14.5165H14.4878H14.4591H14.4305H14.4018H14.3731H14.3444H14.3157H14.287H14.2583H14.2296H14.2009H14.1722H14.1435H14.1148H14.0861H14.0574H14.0287H14H13.9713H13.9426H13.9139H13.8852H13.8565H13.8278H13.7991H13.7704H13.7417H13.713H13.6843H13.6556H13.6269H13.5982H13.5695H13.5409H13.5122H13.4835H13.4548H13.4261H13.3974H13.3688H13.3401H13.3114H13.2828H13.2541H13.2254H13.1968H13.1681H13.1395H13.1109H13.0822H13.0536H13.0249H12.9963H12.9677H12.9391H12.9105H12.8818H12.8532H12.8246H12.796H12.7675H12.7389H12.7103H12.6817H12.6532H12.6246H12.596H12.5675H12.5389H12.5104H12.4819H12.4533H12.4248H12.3963H12.3678H12.3393H12.3108H12.2823H12.2539H12.2254H12.1969H12.1685H12.1401H12.1116H12.0832H12.0548H12.0264H11.998H11.9696H11.9412H11.9128H11.8844H11.8561H11.8277H11.7994H11.7711H11.7428H11.7144H11.6861H11.6579H11.6296H11.6013H11.573H11.5448H11.5166H11.4883H11.4601H11.4319H11.4037H11.3755H11.3474H11.3192H11.2911H11.2629H11.2348H11.2067H11.1786H11.1505H11.1224H11.0944H11.0663H11.0383H11.0103H10.9823H10.9543H10.9263H10.8983H10.8704H10.8424H10.8145H10.7866H10.7587H10.7308H10.7029H10.675H10.6472H10.6194H10.5916H10.5638H10.536H10.5082H10.4805H10.4527H10.425H10.3973H10.3696H10.3419H10.3143H10.2866H10.259H10.2314H10.2038H10.1762H10.1486H10.1211H10.0936H10.0661H10.0386H10.0111H9.98364H9.9562H9.92878H9.90138H9.87399H9.84663H9.81928H9.79195H9.76463H9.73734H9.71006H9.68281H9.65557H9.62835H9.60116H9.57398H9.54682H9.51968H9.49256H9.46546H9.43838H9.41132H9.38428H9.35726H9.33026H9.30328H9.27632H9.24938H9.22247H9.19557H9.1687H9.14185H9.11502H9.08821H9.06142H9.03466H9.00792H8.98119H8.9545H8.92782H8.90117H8.87454H8.84793H8.82134H8.79478H8.76824H8.74172H8.71523H8.68876H8.66232H8.63589H8.6095H8.58312H8.55677H8.53045H8.50415H8.47787H8.45162H8.42539H8.39919H8.37301H8.34686H8.32073H8.29463H8.26855H8.2425H8.21648H8.19048H8.16451H8.13856H8.11264H8.08674H8.06088H8.03504H8.00922H7.98343H7.95767H7.93194H7.90623H7.88056H7.8549H7.82928H7.80368H7.77812H7.75258H7.72706H7.70158H7.67612H7.6507H7.6253H7.59993H7.57459H7.54928H7.52399H7.49874H7.47352H7.44832H7.42316H7.39802H7.37292H7.34784H7.32279H7.29778H7.2728H7.24784H7.22292H7.19802H7.17316H7.14833H7.12353H7.09876H7.07402H7.04932H7.02464H7C3.46537 27.4 0.6 24.5346 0.6 21V20.9754V20.9507V20.926V20.9012V20.8765V20.8517V20.8268V20.802V20.7771V20.7522V20.7272V20.7022V20.6772V20.6522V20.6271V20.602V20.5768V20.5517V20.5265V20.5013V20.476V20.4507V20.4254V20.4001V20.3747V20.3493V20.3239V20.2984V20.2729V20.2474V20.2219V20.1963V20.1707V20.1451V20.1194V20.0938V20.0681V20.0423V20.0166V19.9908V19.965V19.9391V19.9133V19.8874V19.8614V19.8355V19.8095V19.7835V19.7575V19.7314V19.7054V19.6793V19.6531V19.627V19.6008V19.5746V19.5484V19.5221V19.4959V19.4696V19.4432V19.4169V19.3905V19.3641V19.3377V19.3112V19.2848V19.2583V19.2318V19.2052V19.1787V19.1521V19.1255V19.0988V19.0722V19.0455V19.0188V18.9921V18.9653V18.9386V18.9118V18.885V18.8582V18.8313V18.8044V18.7775V18.7506V18.7237V18.6967V18.6697V18.6427V18.6157V18.5887V18.5616V18.5345V18.5074V18.4803V18.4532V18.426V18.3988V18.3716V18.3444V18.3172V18.2899V18.2627V18.2354V18.2081V18.1807V18.1534V18.126V18.0986V18.0712V18.0438V18.0164V17.9889V17.9614V17.9339V17.9064V17.8789V17.8514V17.8238V17.7962V17.7686V17.741V17.7134V17.6857V17.6581V17.6304V17.6027V17.575V17.5473V17.5195V17.4918V17.464V17.4362V17.4084V17.3806V17.3528V17.325V17.2971V17.2692V17.2413V17.2134V17.1855V17.1576V17.1296V17.1017V17.0737V17.0457V17.0177V16.9897V16.9617V16.9337V16.9056V16.8776V16.8495V16.8214V16.7933V16.7652V16.7371V16.7089V16.6808V16.6526V16.6245V16.5963V16.5681V16.5399V16.5117V16.4834V16.4552V16.427V16.3987V16.3704V16.3421V16.3139V16.2856V16.2572V16.2289V16.2006V16.1723V16.1439V16.1156V16.0872V16.0588V16.0304V16.002V15.9736V15.9452V15.9168V15.8884V15.8599V15.8315V15.8031V15.7746V15.7461V15.7177V15.6892V15.6607V15.6322V15.6037V15.5752V15.5467V15.5181V15.4896V15.4611V15.4325V15.404V15.3754V15.3468V15.3183V15.2897V15.2611V15.2325V15.204V15.1754V15.1468V15.1182V15.0895V15.0609V15.0323V15.0037V14.9751V14.9464V14.9178V14.8891V14.8605V14.8319V14.8032V14.7746V14.7459V14.7172V14.6886V14.6599V14.6312V14.6026V14.5739V14.5452V14.5165V14.4878V14.4591V14.4305V14.4018V14.3731V14.3444V14.3157V14.287V14.2583V14.2296V14.2009V14.1722V14.1435V14.1148V14.0861V14.0574V14.0287V14V13.9713V13.9426V13.9139V13.8852V13.8565V13.8278V13.7991V13.7704V13.7417V13.713V13.6843V13.6556V13.6269V13.5982V13.5695V13.5409V13.5122V13.4835V13.4548V13.4261V13.3974V13.3688V13.3401V13.3114V13.2828V13.2541V13.2254V13.1968V13.1681V13.1395V13.1109V13.0822V13.0536V13.0249V12.9963V12.9677V12.9391V12.9105V12.8818V12.8532V12.8246V12.796V12.7675V12.7389V12.7103V12.6817V12.6532V12.6246V12.596V12.5675V12.5389V12.5104V12.4819V12.4533V12.4248V12.3963V12.3678V12.3393V12.3108V12.2823V12.2539V12.2254V12.1969V12.1685V12.1401V12.1116V12.0832V12.0548V12.0264V11.998V11.9696V11.9412V11.9128V11.8844V11.8561V11.8277V11.7994V11.7711V11.7428V11.7144V11.6861V11.6579V11.6296V11.6013V11.573V11.5448V11.5166V11.4883V11.4601V11.4319V11.4037V11.3755V11.3474V11.3192V11.2911V11.2629V11.2348V11.2067V11.1786V11.1505V11.1224V11.0944V11.0663V11.0383V11.0103V10.9823V10.9543V10.9263V10.8983V10.8704V10.8424V10.8145V10.7866V10.7587V10.7308V10.7029V10.675V10.6472V10.6194V10.5916V10.5638V10.536V10.5082V10.4805V10.4527V10.425V10.3973V10.3696V10.3419V10.3143V10.2866V10.259V10.2314V10.2038V10.1762V10.1486V10.1211V10.0936V10.0661V10.0386V10.0111V9.98364V9.9562V9.92878V9.90138V9.87399V9.84663V9.81928V9.79195V9.76463V9.73734V9.71006V9.68281V9.65557V9.62835V9.60116V9.57398V9.54682V9.51968V9.49256V9.46546V9.43838V9.41132V9.38428V9.35726V9.33026V9.30328V9.27632V9.24938V9.22247V9.19557V9.1687V9.14185V9.11502V9.08821V9.06142V9.03466V9.00792V8.98119V8.9545V8.92782V8.90117V8.87454V8.84793V8.82134V8.79478V8.76824V8.74172V8.71523V8.68876V8.66232V8.63589V8.6095V8.58312V8.55677V8.53045V8.50415V8.47787V8.45162V8.42539V8.39919V8.37301V8.34686V8.32073V8.29463V8.26855V8.2425V8.21648V8.19048V8.16451V8.13856V8.11264V8.08674V8.06088V8.03504V8.00922V7.98343V7.95767V7.93194V7.90623V7.88056V7.8549V7.82928V7.80368V7.77812V7.75258V7.72706V7.70158V7.67612V7.6507V7.6253V7.59993V7.57459V7.54928V7.52399V7.49874V7.47352V7.44832V7.42316V7.39802V7.37292V7.34784V7.32279V7.29778V7.2728V7.24784V7.22292V7.19802V7.17316V7.14833V7.12353V7.09876V7.07402V7.04932V7.02464V7C0.6 3.46537 3.46537 0.6 7 0.6H7.02464H7.04932H7.07402H7.09876H7.12353H7.14833H7.17316H7.19802H7.22292H7.24784H7.2728H7.29778H7.32279H7.34784H7.37292H7.39802H7.42316H7.44832H7.47352H7.49874H7.52399H7.54928H7.57459H7.59993H7.6253H7.6507H7.67612H7.70158H7.72706H7.75258H7.77812H7.80368H7.82928H7.8549H7.88056H7.90623H7.93194H7.95767H7.98343H8.00922H8.03504H8.06088H8.08674H8.11264H8.13856H8.16451H8.19048H8.21648H8.2425H8.26855H8.29463H8.32073H8.34686H8.37301H8.39919H8.42539H8.45162H8.47787H8.50415H8.53045H8.55677H8.58312H8.6095H8.63589H8.66232H8.68876H8.71523H8.74172H8.76824H8.79478H8.82134H8.84793H8.87454H8.90117H8.92782H8.9545H8.98119H9.00792H9.03466H9.06142H9.08821H9.11502H9.14185H9.1687H9.19557H9.22247H9.24938H9.27632H9.30328H9.33026H9.35726H9.38428H9.41132H9.43838H9.46546H9.49256H9.51968H9.54682H9.57398H9.60116H9.62835H9.65557H9.68281H9.71006H9.73734H9.76463H9.79195H9.81928H9.84663H9.87399H9.90138H9.92878H9.9562H9.98364H10.0111H10.0386H10.0661H10.0936H10.1211H10.1486H10.1762H10.2038H10.2314H10.259H10.2866H10.3143H10.3419H10.3696H10.3973H10.425H10.4527H10.4805H10.5082H10.536H10.5638H10.5916H10.6194H10.6472H10.675H10.7029H10.7308H10.7587H10.7866H10.8145H10.8424H10.8704H10.8983H10.9263H10.9543H10.9823H11.0103H11.0383H11.0663H11.0944H11.1224H11.1505H11.1786H11.2067H11.2348H11.2629H11.2911H11.3192H11.3474H11.3755H11.4037H11.4319H11.4601H11.4883H11.5166H11.5448H11.573H11.6013H11.6296H11.6579H11.6861H11.7144H11.7428H11.7711H11.7994H11.8277H11.8561H11.8844H11.9128H11.9412H11.9696H11.998H12.0264H12.0548H12.0832H12.1116H12.1401H12.1685H12.1969H12.2254H12.2539H12.2823H12.3108H12.3393H12.3678H12.3963H12.4248H12.4533H12.4819H12.5104H12.5389H12.5675H12.596H12.6246H12.6532H12.6817H12.7103H12.7389H12.7675H12.796H12.8246H12.8532H12.8818H12.9105H12.9391H12.9677H12.9963H13.0249H13.0536H13.0822H13.1109H13.1395H13.1681H13.1968H13.2254H13.2541H13.2828H13.3114H13.3401H13.3688H13.3974H13.4261H13.4548H13.4835H13.5122H13.5409H13.5695H13.5982H13.6269H13.6556H13.6843H13.713H13.7417H13.7704H13.7991H13.8278H13.8565H13.8852H13.9139H13.9426H13.9713H14H14.0287H14.0574H14.0861H14.1148H14.1435H14.1722H14.2009H14.2296H14.2583H14.287H14.3157H14.3444H14.3731H14.4018H14.4305H14.4591H14.4878H14.5165H14.5452H14.5739H14.6026H14.6312H14.6599H14.6886H14.7172H14.7459H14.7746H14.8032H14.8319H14.8605H14.8891H14.9178H14.9464H14.9751H15.0037H15.0323H15.0609H15.0895H15.1182H15.1468H15.1754H15.204H15.2325H15.2611H15.2897H15.3183H15.3468H15.3754H15.404H15.4325H15.4611H15.4896H15.5181H15.5467H15.5752H15.6037H15.6322H15.6607H15.6892H15.7177H15.7461H15.7746H15.8031H15.8315H15.8599H15.8884H15.9168H15.9452H15.9736H16.002H16.0304H16.0588H16.0872H16.1156H16.1439H16.1723H16.2006H16.2289H16.2572H16.2856H16.3139H16.3421H16.3704H16.3987H16.427H16.4552H16.4834H16.5117H16.5399H16.5681H16.5963H16.6245H16.6526H16.6808H16.7089H16.7371H16.7652H16.7933H16.8214H16.8495H16.8776H16.9056H16.9337H16.9617H16.9897H17.0177H17.0457H17.0737H17.1017H17.1296H17.1576H17.1855H17.2134H17.2413H17.2692H17.2971H17.325H17.3528H17.3806H17.4084H17.4362H17.464H17.4918H17.5195H17.5473H17.575H17.6027H17.6304H17.6581H17.6857H17.7134H17.741H17.7686H17.7962H17.8238H17.8514H17.8789H17.9064H17.9339H17.9614H17.9889H18.0164H18.0438H18.0712H18.0986H18.126H18.1534H18.1807H18.2081H18.2354H18.2627H18.2899H18.3172H18.3444H18.3716H18.3988H18.426H18.4532H18.4803H18.5074H18.5345H18.5616H18.5887H18.6157H18.6427H18.6697H18.6967H18.7237H18.7506H18.7775H18.8044H18.8313H18.8582H18.885H18.9118H18.9386H18.9653H18.9921H19.0188H19.0455H19.0722H19.0988H19.1255H19.1521H19.1787H19.2052H19.2318H19.2583H19.2848H19.3112H19.3377H19.3641H19.3905H19.4169H19.4432H19.4696H19.4959H19.5221H19.5484H19.5746H19.6008H19.627H19.6531H19.6793H19.7054H19.7314H19.7575H19.7835H19.8095H19.8355H19.8614H19.8874H19.9133H19.9391H19.965H19.9908H20.0166H20.0423H20.0681H20.0938H20.1194H20.1451H20.1707H20.1963H20.2219H20.2474H20.2729H20.2984H20.3239H20.3493H20.3747H20.4001H20.4254H20.4507H20.476H20.5013H20.5265H20.5517H20.5768H20.602H20.6271H20.6522H20.6772H20.7022H20.7272H20.7522H20.7771H20.802H20.8268H20.8517H20.8765H20.9012H20.926H20.9507H20.9754H21Z" fill="#69F0AE" stroke="#465C64" stroke-width="1.2"/>
<path fill-rule="evenodd" clip-rule="evenodd" d="M7.99999 13.414L7.70699 13.707C7.31699 14.097 6.68299 14.097 6.29299 13.707C5.90299 13.317 5.90299 12.683 6.29299 12.293L8.29299 10.293C8.68299 9.902 9.31699 9.902 9.70699 10.293L11.707 12.293C12.097 12.683 12.097 13.317 11.707 13.707C11.317 14.097 10.683 14.097 10.293 13.707L9.99999 13.414V17C9.99999 17.796 10.316 18.559 10.879 19.121C11.441 19.684 12.204 20 13 20C15.404 20 18 20 18 20C18.552 20 19 20.448 19 21C19 21.552 18.552 22 18 22C18 22 15.404 22 13 22C11.674 22 10.402 21.473 9.46399 20.536C8.52699 19.598 7.99999 18.326 7.99999 17V13.414ZM18 14.586V11C18 10.204 17.684 9.441 17.121 8.879C16.559 8.316 15.796 8 15 8C12.596 8 9.99999 8 9.99999 8C9.44799 8 8.99999 7.552 8.99999 7C8.99999 6.448 9.44799 6 9.99999 6C9.99999 6 12.596 6 15 6C16.326 6 17.598 6.527 18.536 7.464C19.473 8.402 20 9.674 20 11V14.586L20.293 14.293C20.683 13.903 21.317 13.903 21.707 14.293C22.097 14.683 22.097 15.317 21.707 15.707L19.707 17.707C19.317 18.098 18.683 18.098 18.293 17.707L16.293 15.707C15.903 15.317 15.903 14.683 16.293 14.293C16.683 13.903 17.317 13.903 17.707 14.293L18 14.586Z" fill="#465C64"/>
</svg>
