<svg xmlns="http://www.w3.org/2000/svg" enable-background="new 0 0 24 24" viewBox="0 0 24 24"><path fill="#2FC363" d="M11.999,0C10.626,0,2.195,4.818,1.513,6c-0.682,1.182-0.686,10.819,0,12c0.686,1.181,9.115,6,10.486,6c1.371,0,9.8-4.824,10.487-6c0.686-1.176,0.686-10.83,0-12C21.799,4.83,13.371,0,11.999,0z M14.84,19.415v0.002c-0.188,0-1.939-1.677-1.8-1.814c0.041-0.041,0.296-0.069,0.832-0.086c0-1.23,0.028-3.215,0.045-4.046c0.002-0.095-0.021-0.161-0.021-0.274h-3.787c0,0.333-0.022,1.697,0.065,3.416c0.011,0.213-0.075,0.279-0.272,0.278c-0.48-0.001-0.96-0.005-1.44-0.004c-0.194,0-0.278-0.072-0.272-0.286c0.043-1.567,0.14-3.938-0.007-9.969V6.483C7.723,6.467,7.405,6.438,7.363,6.397C7.225,6.26,9,4.583,9.187,4.583c0.187,0,1.951,1.677,1.813,1.814c-0.041,0.041-0.374,0.07-0.795,0.086v0.148c-0.114,1.207-0.096,3.731-0.124,4.94h3.803c0-0.213,0.018-1.628-0.057-3.921c-0.005-0.159,0.046-0.242,0.199-0.244c0.525-0.004,1.049-0.006,1.575-0.003c0.164,0.001,0.216,0.081,0.213,0.252c-0.173,8.967-0.031,8.341-0.031,9.86c0.42,0.016,0.797,0.045,0.838,0.086C16.757,17.737,15.028,19.415,14.84,19.415z"/></svg>