<svg xmlns="http://www.w3.org/2000/svg" enable-background="new 0 0 24 24" viewBox="0 0 24 24"><path fill="#B3B1B0" d="M22,14.355c0-0.742-0.564-1.346-1.26-1.346H10.676c-0.696,0-1.26,0.604-1.26,1.346s0.563,1.346,1.26,1.346H20.74C21.436,15.702,22,15.098,22,14.355z"/><path fill="#E7A41F" d="M3.482,18.187l4.313,4.361C8.768,23.527,10.113,24,11.598,24c1.485,0,2.83-0.512,3.805-1.494l2.588-2.637c0.51-0.514,0.492-1.365-0.039-1.9c-0.531-0.535-1.375-0.553-1.884-0.039l-2.676,2.607c-0.462,0.467-1.102,0.662-1.809,0.662s-1.346-0.195-1.81-0.662l-4.298-4.363c-0.463-0.467-0.696-1.15-0.696-1.863c0-0.713,0.233-1.357,0.696-1.824l4.285-4.38c0.463-0.467,1.116-0.645,1.822-0.645s1.346,0.195,1.809,0.662l2.676,2.606c0.51,0.515,1.354,0.497,1.885-0.038c0.531-0.536,0.549-1.387,0.039-1.901l-2.588-2.636c-0.649-0.646-1.471-1.116-2.392-1.33l-0.034-0.007l2.447-2.503c0.512-0.514,0.494-1.366-0.037-1.901c-0.531-0.535-1.376-0.552-1.887-0.038L3.482,10.476C2.509,11.458,2,12.813,2,14.311C2,15.809,2.509,17.207,3.482,18.187z"/><path fill="#070706" d="M8.115,22.814c-0.176-0.097-0.332-0.219-0.474-0.361c-1.327-1.333-2.66-2.66-3.984-3.997c-1.989-2.008-2.302-4.937-0.786-7.32c0.235-0.369,0.529-0.694,0.839-1.004c3.208-3.214,6.415-6.429,9.623-9.643c0.625-0.626,1.498-0.652,2.079-0.067c0.56,0.563,0.527,1.455-0.078,2.066c-0.769,0.776-1.539,1.55-2.309,2.325c-0.041,0.122-0.14,0.2-0.225,0.287c-0.863,0.876-1.75,1.729-2.601,2.618c-0.111,0.116-0.262,0.186-0.372,0.305c-1.423,1.423-2.863,2.83-4.266,4.272c-1.135,1.167-1.097,2.938,0.068,4.127c1.308,1.336,2.639,2.65,3.961,3.974c0.067,0.067,0.136,0.132,0.204,0.198c0.468,0.303,0.474,1.25,0.183,1.671c-0.321,0.465-0.74,0.75-1.333,0.728C8.445,22.987,8.281,22.907,8.115,22.814z"/></svg>